<?xml version="1.0" encoding="utf-8"?>
<!-- Generator: Adobe Illustrator 18.1.1, SVG Export Plug-In . SVG Version: 6.00 Build 0)  -->
<svg version="1.1" xmlns="http://www.w3.org/2000/svg" xmlns:xlink="http://www.w3.org/1999/xlink" x="0px" y="0px"
	 viewBox="0 0 177.25 181.08" enable-background="new 0 0 177.25 181.08" xml:space="preserve">
<g id="circle-outer">
	<path fill="none" stroke="#000000" stroke-miterlimit="10" d="M161.29,39.67l-7.38,4.65c-14.5-20.43-38.34-33.76-65.29-33.76
		c-20.28,0-38.8,7.55-52.9,19.99l-6.08-6.84C45.26,9.31,65.95,0.56,88.63,0.56C118.79,0.56,145.42,16.05,161.29,39.67z"/>
	<path display="none" fill="none" stroke="#000000" stroke-miterlimit="10" d="M137.16,165.68c-13.91,9.41-30.6,14.88-48.53,14.88
		c-19.35,0-37.24-6.37-51.77-17.17l5.89-7.29c12.99,9.11,28.81,14.46,45.88,14.46c15.87,0,30.66-4.62,43.1-12.59L137.16,165.68z"/>
	<path fill="none" stroke="#000000" stroke-miterlimit="10" d="M168.63,90.56c0,28.31-14.71,53.19-36.9,67.41
		c-12.44,7.97-27.23,12.59-43.1,12.59c-17.07,0-32.89-5.35-45.88-14.46c-3.63-2.55-7.04-5.38-10.19-8.48
		C17.78,133.11,8.63,112.9,8.63,90.56c0-23.9,10.48-45.35,27.1-60.01c14.1-12.44,32.62-19.99,52.9-19.99
		c26.95,0,50.79,13.33,65.29,33.76C163.17,57.38,168.63,73.33,168.63,90.56z"/>
	<path fill="none" stroke="#000000" stroke-miterlimit="10" d="M168.63,90.56c0,28.31-14.71,53.19-36.9,67.41
		c-12.44,7.97-27.23,12.59-43.1,12.59c-17.07,0-32.89-5.35-45.88-14.46c-3.63-2.55-7.04-5.38-10.19-8.48
		C17.78,133.11,8.63,112.9,8.63,90.56c0-23.9,10.48-45.35,27.1-60.01c14.1-12.44,32.62-19.99,52.9-19.99
		c26.95,0,50.79,13.33,65.29,33.76C163.17,57.38,168.63,73.33,168.63,90.56z"/>
	<path display="none" fill="none" stroke="#000000" stroke-miterlimit="10" d="M172.73,63.69l-7.81,2.77
		c-2.52-8-6.27-15.45-11.01-22.14l7.38-4.65C166.21,46.97,170.09,55.05,172.73,63.69z"/>
	<path fill="none" stroke="#000000" stroke-miterlimit="10" d="M176.72,90.56c0,31.39-15.73,59.02-39.57,75.12l-5.43-7.71
		c22.19-14.22,36.9-39.1,36.9-67.41c0-8.41-1.29-16.5-3.7-24.1l7.81-2.77C175.34,72.17,176.72,81.2,176.72,90.56z"/>
	<path display="none" fill="none" stroke="#000000" stroke-miterlimit="10" d="M35.72,30.55C24.39,40.56,15.9,53.73,11.66,68.68
		L3.7,66.55C8.22,49.8,17.36,35.01,29.65,23.71L35.72,30.55z"/>
	<path fill="none" stroke="#000000" stroke-miterlimit="10" d="M42.74,156.1l-5.89,7.29C14.84,147.03,0.53,120.5,0.53,90.56
		c0-8.32,1.1-16.37,3.17-24.01l7.96,2.13c-1.97,6.95-3.03,14.29-3.03,21.88c0,22.34,9.16,42.55,23.93,57.06
		C35.71,150.72,39.11,153.55,42.74,156.1z"/>
</g>
<g id="circle-inner">
	<path fill="none" stroke="#000000" stroke-miterlimit="10" d="M126.13,90.56c0,0.17,0,0.33-0.01,0.5c-0.04,3.24-0.49,6.38-1.3,9.37
		c-1.74,6.39-5.13,12.1-9.67,16.65c-6.79,6.78-16.16,10.97-26.52,10.97c-10.35,0-19.72-3.99-26.51-10.99H62.1
		c-4.52-4.98-7.95-10.2-9.95-16.55c-0.01-0.03-0.02-0.05-0.03-0.08v-0.01c-1-3.14-1.31-6.45-1.31-9.86c0-3.43,0.31-6.72,1.31-9.86
		v-0.01c0.01-0.03,0.02-0.05,0.03-0.08c2-6.35,5.43-11.57,9.95-16.55h0.01c0.42-0.44,0.84-0.86,1.28-1.27
		c0.22-0.21,0.44-0.41,0.66-0.61c0.25-0.23,0.5-0.45,0.76-0.67c0.2-0.17,0.4-0.33,0.61-0.49c0.23-0.19,0.46-0.38,0.7-0.56
		c0.38-0.29,0.77-0.58,1.17-0.86c0.79-0.55,1.6-1.07,2.43-1.55c0.41-0.24,0.82-0.47,1.24-0.7c0.03-0.02,0.06-0.03,0.09-0.04
		c0.41-0.21,0.81-0.42,1.23-0.62c0.43-0.2,0.87-0.4,1.32-0.59c0.44-0.19,0.89-0.38,1.35-0.55c0.45-0.17,0.91-0.33,1.37-0.49
		c3.7-1.23,7.67-1.9,11.8-1.95c0.17-0.01,0.33,0.01,0.5,0.01c10.36,0,19.79,4.21,26.58,10.98l0,0c4.48,4.53,7.89,10.26,9.61,16.59
		C125.66,83.83,126.13,87.14,126.13,90.56z"/>
	<path fill="none" stroke="#000000" stroke-miterlimit="10" d="M133.13,90.56v0.5h-7.01c0.01-0.17,0.01-0.33,0.01-0.5
		c0-3.42-0.46-6.73-1.31-9.87c-1.73-6.36-5.1-12.05-9.61-16.59l3.76-3.88c-0.04-0.04,1.39-1.32,1.35-1.35l0.13-0.13
		c5.45,5.45,9.27,12.31,11.35,19.98c0.01,0.02,0.01,0.04,0.02,0.06C132.83,82.53,133.13,86.48,133.13,90.56z"/>
	<path fill="none" stroke="#000000" stroke-miterlimit="10" d="M120.51,122.44c-0.06,0.07-0.12,0.13-0.18,0.19
		c-8.15,8.14-19.28,13.43-31.7,13.43h-0.5c-12.22-1-23.29-5.4-31.32-13.43c-0.04-0.04-0.08-0.08-0.12-0.12
		c-5.39-5.43-9.66-12.37-11.73-19.99c0-0.02-0.01-0.03-0.01-0.05l7.21-1.96c2,6.35,5.43,11.57,9.95,16.55h0.01
		c6.79,7,16.16,10.99,26.51,10.99c10.36,0,19.73-4.19,26.52-10.97L120.51,122.44z"/>
	<path display="none" fill="none" stroke="#000000" stroke-miterlimit="10" d="M133.13,91.06c0,3.9-0.34,7.68-1.31,11.28
		c-0.01,0.02-0.01,0.04-0.02,0.06c-2.06,7.58-5.93,14.62-11.29,20.04l-5.36-5.36c4.54-4.55,7.93-10.26,9.67-16.65
		c0.81-2.99,1.26-6.13,1.3-9.37H133.13z"/>
	<path fill="none" stroke="#000000" stroke-miterlimit="10" d="M89.72,46.07l-0.09,7.01c-0.33-0.01-0.67-0.01-1-0.01
		c-0.17,0-0.33,0-0.5,0.01c-4.13,0.05-8.1,0.72-11.8,1.98c-0.46,0.16-0.92,0.32-1.37,0.49c-0.46,0.17-0.91,0.36-1.35,0.55
		c-0.45,0.19-0.89,0.39-1.32,0.59c-0.42,0.2-0.82,0.41-1.23,0.62c-0.03,0.01-0.06,0.02-0.09,0.04c-0.42,0.23-0.83,0.46-1.24,0.7
		c-0.83,0.48-1.64,1-2.43,1.55c-0.4,0.28-0.79,0.57-1.17,0.86c-0.24,0.18-0.47,0.36-0.7,0.56c-0.21,0.16-0.41,0.32-0.61,0.49
		c-0.26,0.22-0.51,0.44-0.76,0.67c-0.22,0.2-0.44,0.4-0.66,0.61c-0.44,0.41-0.86,0.83-1.28,1.27H62.1
		c-4.52,4.98-7.95,10.2-9.95,16.55l-7.18-1.95c2.08-7.65,6.26-14.47,11.7-19.91c4.01-3.99,8.83-7.17,14.16-9.34
		c5.34-2.17,11.19-3.35,17.29-3.35h0.5C88.98,46.06,89.34,46.06,89.72,46.07z"/>
	<path display="none" fill="none" stroke="#000000" stroke-miterlimit="10" d="M120.45,58.74l-5.3,5.3
		c-6.57-6.56-15.56-10.7-25.52-10.96l0.09-7.01C101.64,46.34,112.55,50.91,120.45,58.74z"/>
	<g>
	</g>
	<g>
	</g>
	<g>
	</g>
	<g>
	</g>
	<g>
	</g>
	<g>
	</g>
	<g>
	</g>
	<g>
	</g>
	<g>
	</g>
	<g>
	</g>
	<g>
	</g>
	<g>
	</g>
	<g>
	</g>
	<g>
	</g>
	<g>
	</g>
</g>
</svg>
