<?xml version="1.0" encoding="utf-8"?>
<!-- Generator: Adobe Illustrator 18.1.1, SVG Export Plug-In . SVG Version: 6.00 Build 0)  -->
<svg version="1.1" xmlns="http://www.w3.org/2000/svg" xmlns:xlink="http://www.w3.org/1999/xlink" x="0px" y="0px"
	 viewBox="0 0 177.25 177.25" enable-background="new 0 0 177.25 181.08" xml:space="preserve">

<g id="circle-inner">
	<path fill="none" stroke="#000000" stroke-miterlimit="10" d="M126.13,90.56c0,0.17,0,0.33-0.01,0.5c-0.04,3.24-0.49,6.38-1.3,9.37
		c-1.74,6.39-5.13,12.1-9.67,16.65c-6.79,6.78-16.16,10.97-26.52,10.97c-10.35,0-19.72-3.99-26.51-10.99H62.1
		c-4.52-4.98-7.95-10.2-9.95-16.55c-0.01-0.03-0.02-0.05-0.03-0.08v-0.01c-1-3.14-1.31-6.45-1.31-9.86c0-3.43,0.31-6.72,1.31-9.86
		v-0.01c0.01-0.03,0.02-0.05,0.03-0.08c2-6.35,5.43-11.57,9.95-16.55h0.01c0.42-0.44,0.84-0.86,1.28-1.27
		c0.22-0.21,0.44-0.41,0.66-0.61c0.25-0.23,0.5-0.45,0.76-0.67c0.2-0.17,0.4-0.33,0.61-0.49c0.23-0.19,0.46-0.38,0.7-0.56
		c0.38-0.29,0.77-0.58,1.17-0.86c0.79-0.55,1.6-1.07,2.43-1.55c0.41-0.24,0.82-0.47,1.24-0.7c0.03-0.02,0.06-0.03,0.09-0.04
		c0.41-0.21,0.81-0.42,1.23-0.62c0.43-0.2,0.87-0.4,1.32-0.59c0.44-0.19,0.89-0.38,1.35-0.55c0.45-0.17,0.91-0.33,1.37-0.49
		c3.7-1.23,7.67-1.9,11.8-1.95c0.17-0.01,0.33,0.01,0.5,0.01c10.36,0,19.79,4.21,26.58,10.98l0,0c4.48,4.53,7.89,10.26,9.61,16.59
		C125.66,83.83,126.13,87.14,126.13,90.56z"/>
	<path fill="none" stroke="#000000" stroke-miterlimit="10" d="M133.13,90.56v0.5h-7.01c0.01-0.17,0.01-0.33,0.01-0.5
		c0-3.42-0.46-6.73-1.31-9.87c-1.73-6.36-5.1-12.05-9.61-16.59l3.76-3.88c-0.04-0.04,1.39-1.32,1.35-1.35l0.13-0.13
		c5.45,5.45,9.27,12.31,11.35,19.98c0.01,0.02,0.01,0.04,0.02,0.06C132.83,82.53,133.13,86.48,133.13,90.56z"/>
	<path fill="none" stroke="#000000" stroke-miterlimit="10" d="M120.51,122.44c-0.06,0.07-0.12,0.13-0.18,0.19
		c-8.15,8.14-19.28,13.43-31.7,13.43h-0.5c-12.22-1-23.29-5.4-31.32-13.43c-0.04-0.04-0.08-0.08-0.12-0.12
		c-5.39-5.43-9.66-12.37-11.73-19.99c0-0.02-0.01-0.03-0.01-0.05l7.21-1.96c2,6.35,5.43,11.57,9.95,16.55h0.01
		c6.79,7,16.16,10.99,26.51,10.99c10.36,0,19.73-4.19,26.52-10.97L120.51,122.44z"/>
	<path display="none" fill="none" stroke="#000000" stroke-miterlimit="10" d="M133.13,91.06c0,3.9-0.34,7.68-1.31,11.28
		c-0.01,0.02-0.01,0.04-0.02,0.06c-2.06,7.58-5.93,14.62-11.29,20.04l-5.36-5.36c4.54-4.55,7.93-10.26,9.67-16.65
		c0.81-2.99,1.26-6.13,1.3-9.37H133.13z"/>
	<path fill="none" stroke="#000000" stroke-miterlimit="10" d="M89.72,46.07l-0.09,7.01c-0.33-0.01-0.67-0.01-1-0.01
		c-0.17,0-0.33,0-0.5,0.01c-4.13,0.05-8.1,0.72-11.8,1.98c-0.46,0.16-0.92,0.32-1.37,0.49c-0.46,0.17-0.91,0.36-1.35,0.55
		c-0.45,0.19-0.89,0.39-1.32,0.59c-0.42,0.2-0.82,0.41-1.23,0.62c-0.03,0.01-0.06,0.02-0.09,0.04c-0.42,0.23-0.83,0.46-1.24,0.7
		c-0.83,0.48-1.64,1-2.43,1.55c-0.4,0.28-0.79,0.57-1.17,0.86c-0.24,0.18-0.47,0.36-0.7,0.56c-0.21,0.16-0.41,0.32-0.61,0.49
		c-0.26,0.22-0.51,0.44-0.76,0.67c-0.22,0.2-0.44,0.4-0.66,0.61c-0.44,0.41-0.86,0.83-1.28,1.27H62.1
		c-4.52,4.98-7.95,10.2-9.95,16.55l-7.18-1.95c2.08-7.65,6.26-14.47,11.7-19.91c4.01-3.99,8.83-7.17,14.16-9.34
		c5.34-2.17,11.19-3.35,17.29-3.35h0.5C88.98,46.06,89.34,46.06,89.72,46.07z"/>
	<path display="none" fill="none" stroke="#000000" stroke-miterlimit="10" d="M120.45,58.74l-5.3,5.3
		c-6.57-6.56-15.56-10.7-25.52-10.96l0.09-7.01C101.64,46.34,112.55,50.91,120.45,58.74z"/>

</g>
</svg>
