<?xml version="1.0" encoding="utf-8"?>
<!-- Generator: Adobe Illustrator 16.0.0, SVG Export Plug-In . SVG Version: 6.00 Build 0)  -->
<!DOCTYPE svg PUBLIC "-//W3C//DTD SVG 1.1//EN" "http://www.w3.org/Graphics/SVG/1.1/DTD/svg11.dtd">
<svg version="1.1" xmlns="http://www.w3.org/2000/svg" xmlns:xlink="http://www.w3.org/1999/xlink" x="0px" y="0px" width="696px"
	 height="152px" viewBox="0 0 696 152" enable-background="new 0 0 696 152" xml:space="preserve">
<g id="logo-es">
</g>
<g id="logo-cpnv">
	<g>
		<path fill="#4B4A4A" d="M54.604,6.587c10.868,0,19.093,2.644,24.38,8.225c0.293,0.294,0.293,0.587,0.587,0.881
			c0.587,0.881,0.881,2.056,0.881,2.938c0,0.881-0.293,1.762-0.881,2.644c-0.587,0.881-1.175,1.469-2.056,2.056
			c-0.881,0.587-1.763,0.881-2.938,0.881c-0.881,0-1.762-0.294-2.644-0.881c-0.294-0.294-0.881-0.587-1.175-0.881
			c-3.819-3.525-9.106-5.287-16.45-5.287c-14.393,0-21.736,7.343-21.736,21.736s7.343,21.736,21.736,21.736
			c7.344,0,12.631-1.762,16.156-5.287c0.294-0.293,0.587-0.293,1.175-0.587c0.881-0.587,1.763-0.881,2.938-0.881
			c0.881,0,2.056,0.294,2.938,0.881c0.881,0.587,1.469,1.175,2.056,2.056s0.881,1.762,0.881,2.644s-0.293,2.056-0.881,2.938
			c-0.294,0.293-0.294,0.587-0.587,1.175c-5.288,5.287-13.512,8.225-24.38,8.225C32.868,71.797,22,60.929,22,39.192
			C22,17.162,32.868,6.587,54.604,6.587z"/>
		<path fill="#4B4A4A" d="M172.687,66.216c0,0.881-0.293,1.763-0.587,2.644c-0.587,0.881-1.175,1.469-2.056,2.057
			c-0.881,0.587-1.762,0.587-2.644,0.587s-1.763-0.294-2.644-0.587c-0.881-0.588-1.469-1.175-2.056-2.057
			c-0.587-0.881-0.587-1.762-0.587-2.644V39.192c0-21.737,10.868-32.605,32.604-32.605s32.605,10.868,32.605,32.605v27.023
			c0,0.881-0.294,1.763-0.588,2.644c-0.587,0.881-1.175,1.469-2.056,2.057c-0.881,0.587-1.762,0.587-2.644,0.587
			c-0.881,0-1.762-0.294-2.644-0.587c-0.881-0.588-1.469-1.175-2.056-2.057c-0.587-0.881-0.587-1.762-0.587-2.644V39.192
			c0-14.393-7.343-21.737-21.736-21.737s-21.737,7.344-21.737,21.737v27.023H172.687z"/>
		<path fill="#4B4A4A" d="M299.581,6.587c0,21.737-27.905,64.916-49.641,64.916h-10.868V11.875c0-0.881,0.293-1.762,0.587-2.644
			c0.587-0.881,1.175-1.469,2.056-2.056c0.881-0.587,1.762-0.587,2.644-0.587c0.881,0,1.762,0.294,2.644,0.587
			c0.881,0.587,1.469,1.175,2.056,2.056c0.587,0.881,0.587,1.763,0.587,2.644v48.76c14.393,0,38.773-39.654,38.773-54.047H299.581z"
			/>
		<polygon fill="#53B27D" points="340.41,6.587 269.032,142 272.263,142 343.641,6.587 		"/>
		<path fill="#53B27D" d="M121.283,6.587c-21.736,0-32.605,10.868-32.605,32.605l0.072,102.933h10.875l-0.079-76.79
			c5.287,4.112,12.63,6.168,21.736,6.168c21.736,0,32.605-10.869,32.605-32.018C153.594,17.456,142.726,6.587,121.283,6.587z
			 M121.283,60.635c-14.393,0-21.443-7.343-21.736-21.736c0-14.687,7.343-21.736,21.736-21.736c14.687,0,21.736,7.05,21.736,21.736
			C143.019,53.292,135.676,60.635,121.283,60.635z"/>
	</g>
	<g display="none">
		<g display="inline">
			<g id="Layer_5_59_">
				<g>
					<path fill="#010101" d="M329.699,120.905c-0.57,1.073-1.303,1.666-2.063,1.668c-0.761,0.002-1.497-0.585-2.074-1.655
						l-9.423-17.459c0,0-0.85-1.575-0.838,2c0.013,4.059,0.053,16.234,0.053,16.234c0,0.162,0.003,0.977,0.004,1.229
						c0.03,9.2,5.561,19.1,12.342,19.078s12.246-9.958,12.217-19.158c-0.001-0.252-0.004-1.068-0.005-1.229
						c0,0-0.042-12.914-0.056-17.218c-0.01-2.869-0.605-1.465-0.605-1.465L329.699,120.905z"/>
					<path fill="#010101" d="M343.103,89.46c0.716-1.346,0.709-3.545-0.016-4.887l-14.338-21.676
						c-0.724-1.341-1.901-1.337-2.616,0.009l-14.196,21.77c-0.716,1.346-0.708,3.545,0.016,4.887l14.354,26.595
						c0.724,1.341,1.901,1.337,2.616-0.009"/>
					<path fill="#010101" d="M342.642,128.952c-0.023-7.356-0.096-29.424-0.096-29.424s0.002-1.394-0.268-0.932
						c-0.218,0.37-0.748,1.278-0.935,1.777c-0.215,0.576-0.162,1.866-0.162,1.866s0.065,20.039,0.087,26.718
						c0.002,0.379-0.104,0.561-0.155,0.652c-0.49,0.884-0.817,2.515-0.812,4.382c0.01,2.808,0.765,5.082,1.687,5.079
						c0.922-0.003,1.662-2.281,1.652-5.089c-0.006-1.875-0.345-3.509-0.844-4.388C342.747,129.505,342.644,129.331,342.642,128.952z
						"/>
				</g>
			</g>
		</g>
	</g>
	<g>
		<path fill="#4B4A4A" d="M405.848,71.207h-43.738v36.281h50.809v11.039h-64.117V16.152h63.424v11.039h-50.115v32.977h43.738V71.207
			z"/>
		<path fill="#53B27D" d="M459.221,72.895c-11.414-3.328-19.72-7.418-24.918-12.27c-5.199-4.852-7.799-10.839-7.799-17.965
			c0-8.062,3.177-14.73,9.531-20.004c6.354-5.273,14.613-7.91,24.78-7.91c6.932,0,13.111,1.36,18.542,4.078
			c5.43,2.719,9.635,6.469,12.615,11.25s4.471,10.009,4.471,15.68h-13.378c0-6.209-1.94-11.09-5.822-14.642
			c-3.882-3.551-9.357-5.327-16.428-5.327c-6.563,0-11.68,1.468-15.354,4.403s-5.511,7.008-5.511,12.22
			c0,4.18,1.744,7.714,5.233,10.602c3.488,2.888,9.427,5.53,17.814,7.924c8.387,2.396,14.948,5.034,19.686,7.917
			c4.736,2.883,8.248,6.247,10.536,10.09c2.287,3.844,3.431,8.367,3.431,13.57c0,8.297-3.188,14.941-9.565,19.934
			s-14.902,7.488-25.577,7.488c-6.932,0-13.402-1.348-19.408-4.043c-6.008-2.695-10.641-6.386-13.898-11.074
			c-3.258-4.687-4.887-10.007-4.887-15.961h13.378c0,6.188,2.253,11.074,6.759,14.66c4.505,3.586,10.523,5.379,18.057,5.379
			c7.023,0,12.407-1.452,16.15-4.359c3.743-2.906,5.614-6.866,5.614-11.883c0-5.015-1.732-8.895-5.198-11.637
			S468.324,75.566,459.221,72.895z"/>
	</g>
</g>
</svg>
