<?xml version="1.0" encoding="utf-8"?>
<!-- Generator: Adobe Illustrator 18.1.1, SVG Export Plug-In . SVG Version: 6.00 Build 0)  -->
<svg version="1.1" id="Calque_1" xmlns="http://www.w3.org/2000/svg" xmlns:xlink="http://www.w3.org/1999/xlink" x="0px" y="0px"
	 viewBox="266.7 74 676.4 47.2" enable-background="new 266.7 74 676.4 47.2" xml:space="preserve">
<g id="layer4">
	<path fill="#00B050" d="M266.7,121c-0.4-0.3,21.3-23.3,21.3-23.8c0-0.4-4.7-5.4-10.4-11.1c-5.8-5.8-11.2-11.6-10.9-12.1
		c0.3-0.4,36.3,0,79,0h77.5l11.5,11.7l11.4,11.7l-11.8,11.8L422.5,121h-77.6C302.3,121,267,121.4,266.7,121z"/>
</g>
<path fill="#99FF99" d="M432.3,121c-0.4-0.3,21.3-23.3,21.3-23.8c0-0.4-4.7-5.4-10.4-11.1c-5.8-5.8-11.2-11.6-10.9-12.1
	c0.3-0.4,36.3,0,79,0h77.5l11.5,11.7l11.4,11.7l-11.8,11.8L588.1,121h-77.6C467.9,121,432.6,121.4,432.3,121z"/>
<path fill="#00B050" d="M598,121c-0.4-0.3,21.3-23.3,21.3-23.8c0-0.4-4.7-5.4-10.4-11.1c-5.8-5.8-11.2-11.6-10.9-12.1
	c0.3-0.4,36.3,0,79,0h77.5l11.5,11.7l11.4,11.7l-11.8,11.8L753.9,121h-77.6C633.7,121,598.3,121.4,598,121z"/>
<path fill="#99FF99" d="M763.6,121c-0.4-0.3,21.3-23.3,21.3-23.8c0-0.4-4.7-5.4-10.4-11.1c-5.8-5.8-11.2-11.6-10.9-12.1
	c0.3-0.4,36.3,0,79,0h77.5l11.5,11.7L943,97.4l-11.8,11.8L919.4,121h-77.6C799.2,121,763.9,121.4,763.6,121z"/>
<g id="layer6" display="none">
	<path fill="#FEFFFE" d="M277.8,98.6V76h339.4l335.1,1.4L950.7,97l1.5,24.1H617.2H277.8V98.6z M371.1,109.3c32.7,0,75.4,0,75.4,0
		l10.7-5.7l10.7-5.8l-10.4-5.4c-4-2.2-7.9-4.3-11.9-6.5c-24.5,0-49-0.1-73.5-0.1c-25.1,0-50.2,0-75.2,0.1c3.4,2.2,6.8,4.4,10.2,6.6
		l10.1,5.5l-9.6,5.3c-3.8,2-10.1,6.1-10.6,6.1 M618.3,102.6l10.5-5.6l-10.4-5.6l-10.5-5.6h-74.9h-74.9l10.5,5.6l10.4,5.6l-10.4,5.6
		l-10.5,5.6h74.9h74.9L618.3,102.6z M779.1,102.5l10.7-5.8l-10.4-5.4l-10.3-5.5h-74.5c-41.9,0-74.5,0.2-74.5,0.5s4.6,2.8,10.1,5.6
		l10.1,5.1l-10.3,5.6l-10.4,5.6H694h74.4L779.1,102.5z M940.3,102.8c5.7-2.9,10.4-5.6,10.4-5.8c0-0.3-4.7-3-10.4-6l-10.5-5.5
		l-74.7,0.3l-74.6,0.3l10.2,5.5L801,97l-10.4,5.6l-10.5,5.6H855h74.9L940.3,102.8z"/>
</g>
</svg>
