<?xml version="1.0" encoding="utf-8"?>
<!-- Generator: Adobe Illustrator 18.1.1, SVG Export Plug-In . SVG Version: 6.00 Build 0)  -->
<svg version="1.1" xmlns="http://www.w3.org/2000/svg" xmlns:xlink="http://www.w3.org/1999/xlink" x="0px" y="0px"
	 viewBox="0 0 177.25 177.25" enable-background="new 0 0 177.25 181.08" xml:space="preserve">
<g id="circle-outer">
	<path fill="none" stroke="#000000" stroke-miterlimit="10" d="M161.29,39.67l-7.38,4.65c-14.5-20.43-38.34-33.76-65.29-33.76
		c-20.28,0-38.8,7.55-52.9,19.99l-6.08-6.84C45.26,9.31,65.95,0.56,88.63,0.56C118.79,0.56,145.42,16.05,161.29,39.67z"/>
	<path display="none" fill="none" stroke="#000000" stroke-miterlimit="10" d="M137.16,165.68c-13.91,9.41-30.6,14.88-48.53,14.88
		c-19.35,0-37.24-6.37-51.77-17.17l5.89-7.29c12.99,9.11,28.81,14.46,45.88,14.46c15.87,0,30.66-4.62,43.1-12.59L137.16,165.68z"/>
	<path fill="none" stroke="#000000" stroke-miterlimit="10" d="M168.63,90.56c0,28.31-14.71,53.19-36.9,67.41
		c-12.44,7.97-27.23,12.59-43.1,12.59c-17.07,0-32.89-5.35-45.88-14.46c-3.63-2.55-7.04-5.38-10.19-8.48
		C17.78,133.11,8.63,112.9,8.63,90.56c0-23.9,10.48-45.35,27.1-60.01c14.1-12.44,32.62-19.99,52.9-19.99
		c26.95,0,50.79,13.33,65.29,33.76C163.17,57.38,168.63,73.33,168.63,90.56z"/>
	<path fill="none" stroke="#000000" stroke-miterlimit="10" d="M168.63,90.56c0,28.31-14.71,53.19-36.9,67.41
		c-12.44,7.97-27.23,12.59-43.1,12.59c-17.07,0-32.89-5.35-45.88-14.46c-3.63-2.55-7.04-5.38-10.19-8.48
		C17.78,133.11,8.63,112.9,8.63,90.56c0-23.9,10.48-45.35,27.1-60.01c14.1-12.44,32.62-19.99,52.9-19.99
		c26.95,0,50.79,13.33,65.29,33.76C163.17,57.38,168.63,73.33,168.63,90.56z"/>
	<path display="none" fill="none" stroke="#000000" stroke-miterlimit="10" d="M172.73,63.69l-7.81,2.77
		c-2.52-8-6.27-15.45-11.01-22.14l7.38-4.65C166.21,46.97,170.09,55.05,172.73,63.69z"/>
	<path fill="none" stroke="#000000" stroke-miterlimit="10" d="M176.72,90.56c0,31.39-15.73,59.02-39.57,75.12l-5.43-7.71
		c22.19-14.22,36.9-39.1,36.9-67.41c0-8.41-1.29-16.5-3.7-24.1l7.81-2.77C175.34,72.17,176.72,81.2,176.72,90.56z"/>
	<path display="none" fill="none" stroke="#000000" stroke-miterlimit="10" d="M35.72,30.55C24.39,40.56,15.9,53.73,11.66,68.68
		L3.7,66.55C8.22,49.8,17.36,35.01,29.65,23.71L35.72,30.55z"/>
	<path fill="none" stroke="#000000" stroke-miterlimit="10" d="M42.74,156.1l-5.89,7.29C14.84,147.03,0.53,120.5,0.53,90.56
		c0-8.32,1.1-16.37,3.17-24.01l7.96,2.13c-1.97,6.95-3.03,14.29-3.03,21.88c0,22.34,9.16,42.55,23.93,57.06
		C35.71,150.72,39.11,153.55,42.74,156.1z"/>
</g>

</svg>
