<?xml version="1.0" encoding="utf-8"?>
<!-- Generator: Adobe Illustrator 16.0.0, SVG Export Plug-In . SVG Version: 6.00 Build 0)  -->
<!DOCTYPE svg PUBLIC "-//W3C//DTD SVG 1.1//EN" "http://www.w3.org/Graphics/SVG/1.1/DTD/svg11.dtd">
<svg version="1.1" id="Calque_1" xmlns="http://www.w3.org/2000/svg" xmlns:xlink="http://www.w3.org/1999/xlink" x="0px" y="0px"
	 width="595.279px" height="841.89px" viewBox="0 0 595.279 841.89" enable-background="new 0 0 595.279 841.89"
	 xml:space="preserve">
<g id="circle-outer">
	<path fill="none" stroke="#000000" stroke-miterlimit="10" d="M544.68,254.208l-25.064,15.51
		C470.366,201.573,389.395,157.11,297.864,157.11c-68.879,0-131.78,25.184-179.669,66.678l-20.651-22.814
		c53.052-48.032,123.324-77.219,200.354-77.219C400.331,123.754,490.78,175.422,544.68,254.208z"/>
	<path display="none" fill="none" stroke="#000000" stroke-miterlimit="10" d="M460.641,673.296
		c-46.716,31.604-102.768,49.975-162.984,49.975c-64.985,0-125.067-21.395-173.865-57.664l19.781-24.484
		c43.626,30.596,96.756,48.563,154.084,48.563c53.299,0,102.97-15.516,144.748-42.281L460.641,673.296z"/>
	<path fill="none" stroke="#000000" stroke-miterlimit="10" d="M595.295,421.012c0,105.327-54.729,197.892-137.286,250.798
		c-46.281,29.651-101.308,46.84-160.353,46.84c-63.508,0-122.366-19.904-170.695-53.798c-13.505-9.485-26.192-20.017-37.912-31.55
		c-54.988-53.983-89.03-129.175-89.03-212.29c0-88.919,38.99-168.724,100.824-223.266c52.458-46.283,121.362-74.372,196.813-74.372
		c100.268,0,188.963,49.594,242.91,125.603C574.981,297.567,595.295,356.909,595.295,421.012z"/>
	<path display="none" fill="none" stroke="#000000" stroke-miterlimit="10" d="M580.1,330.771l-26.229,9.303
		c-8.463-26.867-21.057-51.888-36.976-74.355l24.785-15.617C558.203,274.619,571.234,301.755,580.1,330.771z"/>
	<path fill="none" stroke="#000000" stroke-miterlimit="10" d="M595.28,421.012c0,105.421-55.275,198.214-139.048,252.284
		l-19.081-25.893c77.976-47.758,129.666-131.314,129.666-226.392c0-28.245-4.534-55.414-13.003-80.938l27.444-9.303
		C590.43,359.251,595.28,389.577,595.28,421.012z"/>
	<path display="none" fill="none" stroke="#000000" stroke-miterlimit="10" d="M119.963,219.473
		c-38.051,33.618-66.564,77.848-80.804,128.057l-26.733-7.153c15.181-56.253,45.876-105.924,87.151-143.875L119.963,219.473z"/>
	<path fill="none" stroke="#000000" stroke-miterlimit="10" d="M148.76,641.123l-20.758,24.484C50.433,610.662,0,521.564,0,421.012
		c0-27.942,3.877-54.978,11.172-80.636l28.054,7.153c-6.943,23.341-10.679,47.992-10.679,73.482
		c0,75.026,32.282,142.901,84.334,191.632C123.984,623.054,135.967,632.56,148.76,641.123z"/>
</g>
<g id="circle-inner">
	<path fill="none" stroke="#000000" stroke-miterlimit="10" d="M532.43,420.906c0,1.069,0,2.075-0.063,3.14
		c-0.249,20.355-3.063,40.086-8.127,58.869c-10.875,40.144-32.065,76.017-60.444,104.601
		c-42.444,42.595-101.018,68.92-165.777,68.92c-64.698,0-123.269-25.068-165.713-69.045h-0.125
		c-28.254-31.288-49.695-64.078-62.197-103.973c-0.064-0.191-0.126-0.314-0.187-0.503v-0.065
		c-6.252-19.725-8.189-40.521-8.189-61.944c0-21.549,1.937-42.217,8.189-61.944v-0.063c0.061-0.189,0.123-0.314,0.187-0.503
		c12.502-39.893,33.943-72.688,62.197-103.974h0.063c2.625-2.764,5.25-5.403,8-7.979c1.376-1.32,2.752-2.576,4.126-3.833
		c1.563-1.445,3.126-2.827,4.75-4.208c1.251-1.069,2.5-2.074,3.814-3.079c1.438-1.193,2.875-2.387,4.375-3.518
		c2.375-1.822,4.813-3.646,7.314-5.402c4.937-3.457,10-6.724,15.188-9.738c2.563-1.508,5.125-2.953,7.752-4.398
		c0.187-0.125,0.375-0.188,0.562-0.251c2.563-1.319,5.063-2.638,7.688-3.895c2.689-1.256,5.439-2.513,8.252-3.706
		c2.75-1.194,5.564-2.388,8.44-3.457c2.812-1.068,5.688-2.072,8.563-3.078c23.127-7.728,47.945-11.936,73.762-12.25
		c1.062-0.063,2.061,0.063,3.125,0.063c64.759,0,123.707,26.448,166.151,68.981l0,0c28.005,28.458,49.319,64.458,60.071,104.226
		C529.492,378.626,532.43,399.42,532.43,420.906z"/>
	<path display="none" fill="none" stroke="#000000" stroke-miterlimit="10" d="M454.94,422.691c0,13.512-1.202,26.608-4.633,39.08
		c-0.035,0.07-0.035,0.139-0.07,0.21c-7.285,26.26-20.97,50.651-39.923,69.43l-18.953-18.571
		c16.054-15.764,28.041-35.546,34.193-57.685c2.864-10.358,4.456-21.239,4.597-32.464H454.94L454.94,422.691z"/>
	<path display="none" fill="none" stroke="#000000" stroke-miterlimit="10" d="M410.102,310.717l-18.741,18.362
		c-23.231-22.728-55.021-37.071-90.241-37.972l0.319-24.287C343.588,267.756,382.167,283.588,410.102,310.717z"/>
</g>
</svg>
