<?xml version="1.0" encoding="utf-8"?>
<!-- Generator: Adobe Illustrator 18.1.1, SVG Export Plug-In . SVG Version: 6.00 Build 0)  -->
<svg version="1.1" id="Calque_1" xmlns="http://www.w3.org/2000/svg" xmlns:xlink="http://www.w3.org/1999/xlink" x="0px" y="0px"
	 viewBox="266.65 74 676.37 47.18" enable-background="new 266.65 74 676.37 47.18" xml:space="preserve">
<g id="layer4">
	<path fill="#00B050" d="M266.68,121c-0.4-0.3,21.32-23.3,21.32-23.8c0-0.4-4.7-5.4-10.4-11.1c-5.8-5.8-11.25-11.6-10.95-12.1
		c0.3-0.4,36.35,0,79.05,0h77.5l11.5,11.7l11.4,11.7l-11.8,11.8L422.5,121h-77.6C302.3,121,266.98,121.4,266.68,121z"/>
</g>
<path fill="#99FF99" d="M432.29,121c-0.4-0.3,21.32-23.3,21.32-23.8c0-0.4-4.7-5.4-10.4-11.1c-5.8-5.8-11.25-11.6-10.95-12.1
	c0.3-0.4,36.35,0,79.05,0h77.5l11.5,11.7l11.4,11.7l-11.8,11.8l-11.8,11.8h-77.6C467.92,121,432.59,121.4,432.29,121z"/>
<path fill="#00B050" d="M598.04,121c-0.4-0.3,21.32-23.3,21.32-23.8c0-0.4-4.7-5.4-10.4-11.1c-5.8-5.8-11.25-11.6-10.95-12.1
	c0.3-0.4,36.35,0,79.05,0h77.5l11.5,11.7l11.4,11.7l-11.8,11.8l-11.8,11.8h-77.6C633.67,121,598.34,121.4,598.04,121z"/>
<path fill="#99FF99" d="M763.59,121c-0.4-0.3,21.32-23.3,21.32-23.8c0-0.4-4.7-5.4-10.4-11.1c-5.8-5.8-11.25-11.6-10.95-12.1
	c0.3-0.4,36.35,0,79.05,0h77.5l11.5,11.7l11.4,11.7l-11.8,11.8l-11.8,11.8h-77.6C799.22,121,763.89,121.4,763.59,121z"/>
<g id="layer6" display="none">
	<path fill="#FEFFFE" d="M277.77,98.59V76h339.41l335.09,1.38l-1.52,19.64l1.52,24.14H617.18H277.77V98.59z M371.14,109.32
		c32.72,0,75.37,0,75.37,0l10.7-5.71l10.7-5.76l-10.41-5.4c-3.97-2.17-7.94-4.34-11.91-6.52c-24.52-0.04-49.03-0.09-73.55-0.13
		c-25.08,0.02-50.17,0.04-75.25,0.06c3.39,2.19,6.77,4.39,10.16,6.58l10.11,5.45l-9.63,5.3c-3.75,1.99-10.06,6.1-10.64,6.08
		 M618.34,102.64l10.5-5.61l-10.41-5.56l-10.5-5.61h-74.88h-74.88l10.5,5.56l10.41,5.61l-10.41,5.56l-10.5,5.61h74.88h74.88
		L618.34,102.64z M779.1,102.48l10.7-5.76l-10.41-5.4l-10.31-5.45h-74.49c-41.92,0-74.49,0.21-74.49,0.47s4.57,2.75,10.11,5.56
		l10.11,5.14l-10.31,5.61l-10.41,5.56H694h74.4L779.1,102.48z M940.34,102.85c5.74-2.91,10.41-5.56,10.41-5.81
		c0-0.31-4.67-3.01-10.41-5.97l-10.5-5.45l-74.69,0.26l-74.59,0.26l10.21,5.45l10.21,5.45l-10.41,5.56l-10.5,5.61h74.88h74.88
		L940.34,102.85z"/>
</g>
</svg>
