<?xml version="1.0" encoding="iso-8859-1"?>
<!-- Generator: Adobe Illustrator 19.0.0, SVG Export Plug-In . SVG Version: 6.00 Build 0)  -->
<svg version="1.1" id="Layer_1" xmlns="http://www.w3.org/2000/svg" xmlns:xlink="http://www.w3.org/1999/xlink" x="0px" y="0px"
	 viewBox="0 0 512.001 512.001" style="enable-background:new 0 0 512.001 512.001;" xml:space="preserve">
<g>
	<g>
		<g>
			<circle cx="401.118" cy="395.003" r="10.581"/>
			<circle cx="361.787" cy="373.84" r="10.581"/>
			<path d="M494.081,258.048h-47.616c-5.843,0-10.581,4.737-10.581,10.581v91.923c-0.184-0.11-0.361-0.226-0.547-0.334
				l-227.98-131.624l80.151-114.467c3.848,1.896,8.049,2.875,12.333,2.875c1.644,0,3.299-0.144,4.952-0.436
				c7.409-1.306,13.866-5.421,18.182-11.583l37.484-53.532c4.315-6.163,5.973-13.638,4.666-21.047
				c-1.307-7.41-5.421-13.867-11.583-18.182l-10.194-7.138c-12.723-8.907-30.322-5.805-39.229,6.918l-37.483,53.532
				c-4.315,6.163-5.973,13.637-4.666,21.047c1.051,5.958,3.919,11.298,8.206,15.406L188.96,217.973l-26.662-15.393
				c-10.041-5.797-21.736-7.339-32.938-4.336c-11.199,3.001-20.56,10.183-26.356,20.224l-20.623,35.717
				c-2.923,5.061-1.188,11.533,3.873,14.454l274.893,158.71H17.92c-5.843,0-10.581,4.737-10.581,10.581v63.488
				c0,5.844,4.738,10.581,10.581,10.581h476.161c5.843,0,10.581-4.737,10.581-10.581v-232.79
				C504.662,262.786,499.925,258.048,494.081,258.048z M283.969,77.673l37.483-53.533c1.361-1.944,3.538-2.984,5.749-2.984
				c1.387,0,2.788,0.411,4.007,1.265l10.194,7.138c1.532,1.073,2.555,2.679,2.881,4.521c0.325,1.842-0.088,3.701-1.161,5.234
				l-37.484,53.532c-1.074,1.533-2.679,2.556-4.521,2.881c-1.84,0.325-3.7-0.088-5.232-1.161c-0.001,0-0.001,0-0.001,0
				l-10.194-7.138c-1.532-1.073-2.554-2.679-2.88-4.521C282.484,81.064,282.896,79.205,283.969,77.673z M105.999,255.604
				l15.332-26.555c2.971-5.146,7.768-8.826,13.507-10.363c5.737-1.539,11.733-0.749,16.878,2.222l25.059,14.468l-10.214,14.587
				c-3.352,4.787-2.188,11.386,2.599,14.737c1.846,1.294,3.963,1.915,6.06,1.915c3.335,0,6.619-1.573,8.677-4.513l11.277-16.105
				l229.584,132.551c10.622,6.132,14.274,19.763,8.142,30.384l-4.21,7.294c-2.971,5.145-7.767,8.826-13.506,10.363
				c-5.74,1.539-11.734,0.749-16.879-2.222L105.999,255.604z M483.499,490.838H28.501v-42.325h454.998V490.838z M483.499,427.35
				h-26.453v-31.579v-116.56h26.453V427.35z"/>
		</g>
	</g>
</g>
<g>
</g>
<g>
</g>
<g>
</g>
<g>
</g>
<g>
</g>
<g>
</g>
<g>
</g>
<g>
</g>
<g>
</g>
<g>
</g>
<g>
</g>
<g>
</g>
<g>
</g>
<g>
</g>
<g>
</g>
</svg>
