<?xml version="1.0" encoding="utf-8"?>
<!-- Generator: Adobe Illustrator 18.1.1, SVG Export Plug-In . SVG Version: 6.00 Build 0)  -->
<svg version="1.1" id="Calque_1" xmlns="http://www.w3.org/2000/svg" xmlns:xlink="http://www.w3.org/1999/xlink" x="0px" y="0px"
	 viewBox="249.9 -32.2 199.6 244.2" enable-background="new 249.9 -32.2 199.6 244.2" xml:space="preserve">
<g id="layer1">
	<path stroke="#000000" stroke-miterlimit="10" d="M268.4,198.4c-9.7-16.7-10-17.3-14.7-25.7l-3.8-6.8l13.3-22.9l13.2-23h6.8h6.8
		v-11V98h30.5H351v-8.8v-8.8l-29.7-14.2c-16.4-7.8-31.5-14.4-33.6-14.8c-13.7-2.4-15.1-21.1-1.9-25.5c1.9-0.6,17.4-9.3,34.4-19.2
		c23.7-13.8,31.2-18.7,32.4-20.9c3.4-6.6,13.5-8.9,20.4-4.7c5.5,3.4,20.7,2.5,18.5-1.1c-0.3-0.5,17.5-11.4,20-12.2
		c0.6-0.2,5.2,2.1,10.3,5l9.2,5.3l-1.5,3c-0.9,1.6-1.8,2.9-2.2,2.9c-0.3,0-3.9-1.8-7.9-4l-7.3-4.1l-6.6,3.8l-6.5,3.7v7.7v7.7
		l6.1,3.6c3.3,2,6.5,3.6,7,3.6c0.6,0,4.2-1.9,8.1-4.2c7.4-4.4,7.1-4.4,9.9,0.5c0.6,1,0.9,2,0.7,2.1c-0.2,0.2-4.4,2.6-9.5,5.5
		l-9.1,5.2l-10.4-6c-5.9-3.4-10.5-6.8-10.8-7.8c-0.4-1.5-1.6-2-5.6-2.2c-4.7-0.2-5.5,0.1-9.7,3.7c-4.8,4.2-9.2,5.8-12.6,4.7
		c-1.4-0.4-9.2,3.5-27.3,14c-13.9,8.1-25.6,14.9-26,15.3c-0.3,0.4,17.2,9.1,38.9,19.5C379.1,70.7,389,75,392.1,75h3.9v11.5V98h7.5
		h7.5v11v11h6h5.9l13.1,21.9c7.1,12,13.2,22.5,13.5,23.3c0.3,0.8-5.5,11.6-13,24.1L422.9,212h-73.3h-73.4L268.4,198.4z M430.1,185.6
		l11.7-19.5l-11.7-19.5L418.5,127l-68.9,0.3l-69,0.2L269.9,146c-6,10.2-10.8,19.1-10.9,19.9c0,1.2,18.8,34.7,21.3,37.9
		c0.7,0.9,15.9,1.2,69.6,1.2h68.6L430.1,185.6z M403.8,112.8l-0.3-7.3l-53.2-0.1l-53.3-0.1v7.3v7.4h53.5h53.6L403.8,112.8z
		 M389,90.5v-7.6l-15.2,0.3l-15.3,0.3V90c-0.1,3.6,0.1,6.8,0.3,7.3c0.2,0.4,7,0.7,15.3,0.7H389V90.5z M370.5,75.1
		c-0.6-0.5-14.5-7.3-31-15.1S307.9,45,306,44l-3.6-1.8l-1.5,2.7l-1.6,2.7L327.4,61c26.5,12.7,28.5,13.5,35.6,14.1
		c4.1,0.3,7.7,0.6,8,0.7C371.2,75.9,371,75.6,370.5,75.1z M293.4,42.7c2.1-1.6,2.4-6,0.6-8.2c-1.8-2.2-7.7-1.9-9,0.4
		C281.7,41.1,287.8,46.8,293.4,42.7z M328.8,17.1l24.9-14.4L352.3,0L351-2.8l-26.5,15.5c-25.7,15.1-26.5,15.6-24.8,17.5
		c0.9,1,2.2,1.7,2.9,1.6C303.3,31.6,315,25,328.8,17.1z M370-2c2.9-2.9,2.6-7.4-0.6-9.9c-1.5-1.2-3.4-2.1-4.4-2.1s-2.9,0.9-4.4,2.1
		c-5,4-2.1,11.9,4.4,11.9C366.7,0,368.9-0.9,370-2z M388.7-8.7c-2-0.2-5.2-0.2-7,0c-1.7,0.2,0,0.4,3.8,0.4
		C389.4-8.3,390.8-8.5,388.7-8.7z"/>
	<path stroke="#000000" stroke-miterlimit="10" d="M296.4,189.6c-8.6-4-15.4-14.4-15.4-23.6c0-9.1,6.4-19,15.2-23.4
		c13.7-6.9,32.3,0.9,36.1,15.2l1.1,4.2H350h16.7l1.1-3.8c3-9.8,11.8-17,22.2-17.9c8-0.8,14,1.1,19.6,6c5.8,5.1,8.5,10.6,9.2,18.2
		c0.6,7.8-2.3,14.8-8.3,20.4c-5.7,5.3-10.4,7.1-17.9,7.1c-11.2,0-20.6-6.6-24.3-17l-1.8-5H350h-16.6l-1.1,4.3
		c-2.7,9.8-13.6,17.7-24.8,17.7C303.3,192,300,191.3,296.4,189.6z M314.7,183.5c4.8-2,7.1-4.1,9.4-8.7c2.5-4.8,2.5-4.8-1.4-4.8
		c-2.7,0-3.6,0.6-4.5,2.6c-0.7,1.4-3,3.3-5.5,4.4c-13.2,5.8-23.9-10.5-13.1-20c2.8-2.4,4.4-3,8.1-3c4,0,5,0.5,8.5,4
		c2.9,2.8,4.9,4,6.9,4c3.4,0,3.4,0,0.9-5c-6.5-12.7-25.2-13-32.5-0.6c-4.3,7.3-2.8,18.4,3.2,23.8
		C299.8,184.8,308.2,186.2,314.7,183.5z M400.5,183.1c7.7-3.5,12.4-12,11-20.2c-1.4-8.2-10.5-15.9-18.6-15.9
		c-6.9,0.1-15.4,5.9-17.8,12.3c-1,2.6-0.9,2.7,2,2.7c2.2,0,4-1.1,6.8-4c3.2-3.4,4.4-4,8-4c10.3,0,16.2,9.1,11.6,18
		c-2.2,4.3-5.3,6-10.9,6c-4.4,0-5.3-0.4-8.7-4c-2.8-2.9-4.6-4-6.8-4c-2.9,0-2.9,0.1-2,2.8c1.3,3.8,7.8,10.1,11.5,11.2
		C391.3,185.4,396.2,185.1,400.5,183.1z M311.6,168.5c1.5-2.3,1.5-2.7,0-5c-1-1.5-2.6-2.5-4.1-2.5s-3.1,1-4.1,2.5
		c-1.5,2.3-1.5,2.7,0,5c1,1.5,2.6,2.5,4.1,2.5S310.6,170,311.6,168.5z M396.4,169.4c2.2-2.1,2-4.7-0.4-6.9c-4.4-4-10.7,2.5-6.9,7.1
		C390.6,171.5,394.5,171.4,396.4,169.4z"/>
</g>
</svg>
